<svg width="4000" height="3080pt" viewBox="0 0 3000 3080" xmlns="http://www.w3.org/2000/svg"><path fill="#f55" stroke="#f55" stroke-width=".1" d="M1332.2 75c189.7-44.9 390-44.1 579.2 2.5A1273 1273 0 0 1 2312 254a1409.8 1409.8 0 0 1 383.3 380.7 1541 1541 0 0 1 206.4 438.5 1637.2 1637.2 0 0 1 60.7 567.7 1604.2 1604.2 0 0 1-123.7 519.8 1501.6 1501.6 0 0 1-261.3 412.7A1368.4 1368.4 0 0 1 2215 2862c-74.5 40.6-153 73.9-234.1 98.9a1277.7 1277.7 0 0 1-133.6 33.2 1242.8 1242.8 0 0 1-438.4 4c-88.7-15.1-175.8-40-259.2-73.8A1326.7 1326.7 0 0 1 748 2667a1472.6 1472.6 0 0 1-325.4-444.6 1587 1587 0 0 1-141.7-481.2 1646.1 1646.1 0 0 1 29.5-586.9 1565.4 1565.4 0 0 1 112.4-319.6 1484.1 1484.1 0 0 1 267.5-387.4 1352.3 1352.3 0 0 1 406-291A1262.7 1262.7 0 0 1 1332.2 75m242.2 282.5c-132 5.2-262.8 36.4-383 90.9a1074.3 1074.3 0 0 0-207.9 124.1 1161.5 1161.5 0 0 0-335 408.1c-39.7 80-70.4 164.5-91.6 251.2-22.6 92-34.3 186.5-35.4 281.2a1249.2 1249.2 0 0 0 32.6 301 1205.4 1205.4 0 0 0 185 415.8A1150.3 1150.3 0 0 0 928 2439.9a1065.7 1065.7 0 0 0 425.2 226.8A1031.8 1031.8 0 0 0 2134 2562c133-76.5 249-181.5 340.3-304.6a1203 1203 0 0 0 206.1-448A1251.5 1251.5 0 0 0 2712 1522c-.5-97.2-12.1-194.4-35.2-288.8-19.8-81.6-48-161.1-84.3-236.8a1161.1 1161.1 0 0 0-333.2-416.6 1058.8 1058.8 0 0 0-391.1-192.1 1031 1031 0 0 0-293.8-30.2Z"/><path fill="#282828" stroke="#282828" stroke-width=".1" opacity=".2" d="M1080.6 159.6c5.2-1.4 10.3-3.3 15.7-3.3a1352.3 1352.3 0 0 0-406 291 1484.1 1484.1 0 0 0-267.5 387.4 1565.4 1565.4 0 0 0-112.4 319.6 1646.1 1646.1 0 0 0-29.5 586.9 1587 1587 0 0 0 141.7 481.2A1472.6 1472.6 0 0 0 748 2667a1326.7 1326.7 0 0 0 401.7 257.3 1249.3 1249.3 0 0 0 259.2 73.8 1242.8 1242.8 0 0 0 438.4-4c-3.2 2.7-7.7 3.2-11.6 4.6A1256 1256 0 0 1 1265 3038a1291 1291 0 0 1-249.6-66.5 1373.2 1373.2 0 0 1-400.6-236.3 1465.6 1465.6 0 0 1-249.2-270.8 1532.9 1532.9 0 0 1-180.4-335.5 1608.7 1608.7 0 0 1-106.8-538 1548.7 1548.7 0 0 1 90.6-563.8 1464.1 1464.1 0 0 1 221.4-402.7C452.4 544.9 523 472 601 407.9a1280.4 1280.4 0 0 1 479.6-248.3Z"/><path fill="#ffd5d5" stroke="#ffd5d5" stroke-width=".1" d="M1574.4 357.5c98.7-4 198 6 293.8 30.2a1058.8 1058.8 0 0 1 391.1 192.1 1161.1 1161.1 0 0 1 333.2 416.6 1205.1 1205.1 0 0 1 84.3 236.8A1243.2 1243.2 0 0 1 2712 1522c.5 96.6-9.9 193.3-31.6 287.4a1203 1203 0 0 1-206.1 448A1123.6 1123.6 0 0 1 2134 2562a1031.8 1031.8 0 0 1-780.8 104.7A1065.7 1065.7 0 0 1 928 2439.9a1150.3 1150.3 0 0 1-188.9-210.1 1205.4 1205.4 0 0 1-185-415.8 1249.2 1249.2 0 0 1-32.6-301c1.1-94.7 12.8-189.2 35.4-281.2a1214.9 1214.9 0 0 1 91.6-251.2 1161.5 1161.5 0 0 1 335-408.1c64.4-49 134.2-90.8 207.9-124.1 120.2-54.5 251-85.7 383-90.9m-210.5 337.6a798.3 798.3 0 0 0-221.5 95.2 799 799 0 0 0-168.9 142.2A903.2 903.2 0 0 0 843.9 1121a1055.3 1055.3 0 0 0-89.5 236.2A1040.7 1040.7 0 0 0 726 1653c3.9 90.2 20.8 180 51 265.1a733 733 0 0 0 53.7 119.2A718.2 718.2 0 0 0 995 2232.1a780.3 780.3 0 0 0 236.9 134 1165 1165 0 0 0 260.7 59.4c56.2 6.2 112.8 9.5 169.4 9 11.3-.2 22.6.3 34-.4 96.9-2.5 194.3-13.3 287.7-40.5a884 884 0 0 0 126.1-47.9A832.6 832.6 0 0 0 2309 2217a897.4 897.4 0 0 0 81.4-80.6 569.3 569.3 0 0 0 68.7-95.3c3.7-7 7.9-13.9 10.8-21.2-11.6-.5-23.3-.1-34.9-.2h-99c-11 .2-21.9-.4-32.9.2-2.7 2.4-4.5 5.7-6.6 8.6-44.7 60.8-103.7 110-167.7 149.4a835.2 835.2 0 0 1-104.4 54.6c-21.3 8.9-43 17-65.1 23.8-91.8 28.7-188.3 39.7-284.3 41.3h-39a1100.5 1100.5 0 0 1-290.8-41.8 896 896 0 0 1-130.3-48.7 612.2 612.2 0 0 1-126.7-79.3 568.8 568.8 0 0 1-125.7-144.3 669.9 669.9 0 0 1-85.8-226.1A899.1 899.1 0 0 1 862 1565c2.4-94.2 19.9-188 52.6-276.4a810.7 810.7 0 0 1 116.3-213.7 675.2 675.2 0 0 1 165.7-153.3 761.9 761.9 0 0 1 223.2-98.8 842.7 842.7 0 0 1 284.3-22.9 751 751 0 0 1 137.1 24.7 702.2 702.2 0 0 1 207.2 96c45 30.7 85.8 67.7 119.8 110.2a552.4 552.4 0 0 1 74.7 125.4 549.6 549.6 0 0 1 41.5 155.6c5.6 49.7 5 100.3-2.6 149.8-7 45.5-19.7 90.2-37.4 132.7a549 549 0 0 1-125.7 188.5 523.4 523.4 0 0 1-92.4 70.4 288 288 0 0 1-56.3 26.9 107 107 0 0 1-48.9 5.8 64.4 64.4 0 0 1-49.7-41.5 62.6 62.6 0 0 1-1-33c8.7-49 19.4-97.5 29.8-146.2l120.1-559.9c2.6-13.5 6.2-26.7 8.5-40.2-46.3-.4-92.5 0-138.8-.1-8.8.2-17.7-.6-26.5.4-10.5 47.1-20.8 94.4-31.1 141.6-3.6-4.6-6.3-9.9-9.7-14.7a438.7 438.7 0 0 0-27.8-37.2 326 326 0 0 0-87.9-75 307 307 0 0 0-122-40.2 319.7 319.7 0 0 0-130.6 14.6 462.4 462.4 0 0 0-108.6 52.2 470.5 470.5 0 0 0-93.3 77.8 593.6 593.6 0 0 0-68 89 729.4 729.4 0 0 0-94.2 223.9c-11.3 50-16 101.4-14 152.6 1.6 39.2 7.4 78.1 17.9 115.9 10.5 37.8 26 74.3 45.5 108.4a359 359 0 0 0 56.8 75.2c20 20.6 43.3 37.8 68.4 51.6a310.3 310.3 0 0 0 88.7 33.5c32.3 6.5 65.7 7.4 98.3 2.3 48.9-7.6 94.7-29.1 135.7-56.4a526 526 0 0 0 104.5-92.5c2.1 17.6 4.1 35.2 8.3 52.4a117.6 117.6 0 0 0 50.4 71.9 153.4 153.4 0 0 0 55.3 22.7c21.6 4.7 43.8 6.3 65.9 6a415 415 0 0 0 193.6-48.5 540.3 540.3 0 0 0 96.9-65.1c15.9-13.3 31-27.5 45.9-42 12.5-12.9 24.8-25.9 36.7-39.3a730.8 730.8 0 0 0 128.5-202.5A677.9 677.9 0 0 0 2425 1384c.2-51-4.5-102.1-15-152.1a694.7 694.7 0 0 0-106.7-250.2 675 675 0 0 0-255.9-227.2 828 828 0 0 0-237.3-78.5 1010.3 1010.3 0 0 0-158.1-14.5c-96.9-.7-194.3 8.6-288.1 33.6Z"/><path fill="#f55" stroke="#f55" stroke-width=".1" d="M1363.9 695.1c93.8-25 191.2-34.3 288.1-33.6 52.9 1 105.9 5.2 158.1 14.5a828 828 0 0 1 237.3 78.5 675 675 0 0 1 255.9 227.2 694.7 694.7 0 0 1 106.7 250.2 726.6 726.6 0 0 1 15 152.1c-.3 88.7-17 177.7-51.4 259.6a730.8 730.8 0 0 1-128.5 202.5 1236.1 1236.1 0 0 1-36.7 39.3 827.2 827.2 0 0 1-45.9 42 540.3 540.3 0 0 1-96.9 65.1A415 415 0 0 1 1872 2041c-22.1.3-44.3-1.3-65.9-6a153.4 153.4 0 0 1-55.3-22.7 117.6 117.6 0 0 1-50.4-71.9c-4.2-17.2-6.2-34.8-8.3-52.4a526 526 0 0 1-104.5 92.5c-41 27.3-86.8 48.8-135.7 56.4-32.6 5.1-66 4.2-98.3-2.3-31.1-6.4-61-18-88.7-33.5a289.5 289.5 0 0 1-68.4-51.6 359 359 0 0 1-56.8-75.2 475.3 475.3 0 0 1-45.5-108.4 510.5 510.5 0 0 1-17.9-115.9c-2-51.2 2.7-102.6 14-152.6 18-79.5 51.2-155 94.2-223.9 20-31.6 42.4-61.7 68-89a470.5 470.5 0 0 1 93.3-77.8c33.9-21.7 70.2-40 108.6-52.2 42-13.5 86.7-19.2 130.6-14.6a307 307 0 0 1 122 40.2 326 326 0 0 1 87.9 75c10 11.8 19.1 24.4 27.8 37.2 3.4 4.8 6.1 10.1 9.7 14.7 10.3-47.2 20.6-94.5 31.1-141.6 8.8-1 17.7-.2 26.5-.4 46.3.1 92.5-.3 138.8.1-2.3 13.5-5.9 26.7-8.5 40.2l-120.1 559.9c-10.4 48.7-21.1 97.2-29.8 146.2a62.6 62.6 0 0 0 1 33 64.4 64.4 0 0 0 49.7 41.5 107 107 0 0 0 48.9-5.8 288 288 0 0 0 56.3-26.9 523.4 523.4 0 0 0 92.4-70.4 549 549 0 0 0 125.7-188.5 572.2 572.2 0 0 0 37.4-132.7 569.2 569.2 0 0 0 2.6-149.8 549.6 549.6 0 0 0-41.5-155.6 552.4 552.4 0 0 0-74.7-125.4 550.5 550.5 0 0 0-119.8-110.2 702.2 702.2 0 0 0-207.2-96 751 751 0 0 0-137.1-24.7 842.7 842.7 0 0 0-284.3 22.9 761.9 761.9 0 0 0-223.2 98.8 675.2 675.2 0 0 0-165.7 153.3 810.7 810.7 0 0 0-116.3 213.7A861.1 861.1 0 0 0 862 1565a899.1 899.1 0 0 0 14.7 192.4 669.9 669.9 0 0 0 85.8 226.1 568.8 568.8 0 0 0 125.7 144.3c38.7 31.7 81.6 58 126.7 79.3a896 896 0 0 0 130.3 48.7 1100.5 1100.5 0 0 0 290.8 41.8h39c96-1.6 192.5-12.6 284.3-41.3a713.1 713.1 0 0 0 65.1-23.8 835.2 835.2 0 0 0 104.4-54.6c64-39.4 123-88.6 167.7-149.4 2.1-2.9 3.9-6.2 6.6-8.6 11-.6 21.9 0 32.9-.2h99c11.6.1 23.3-.3 34.9.2-2.9 7.3-7.1 14.2-10.8 21.2a569.3 569.3 0 0 1-68.7 95.3 897.4 897.4 0 0 1-81.4 80.6 832.6 832.6 0 0 1-199.2 128.7 884 884 0 0 1-126.1 47.9c-93.4 27.2-190.8 38-287.7 40.5-11.4.7-22.7.2-34 .4-56.6.5-113.2-2.8-169.4-9a1165 1165 0 0 1-260.7-59.4c-85.7-31-167-75.3-236.9-134a718.2 718.2 0 0 1-164.3-194.8 733 733 0 0 1-53.7-119.2 911.8 911.8 0 0 1-51-265.1c-4.5-99.3 4.6-199.2 28.4-295.8 20-82 50.6-161.4 89.5-236.2a903.2 903.2 0 0 1 129.6-188.5 799 799 0 0 1 168.9-142.2 798.3 798.3 0 0 1 221.5-95.2m193.4 481.2a219.7 219.7 0 0 0-95.7 26.3 258.4 258.4 0 0 0-52.3 37.7c-27 25-50.3 53.9-70.4 84.7a542.2 542.2 0 0 0-54.6 114.2 712 712 0 0 0-31 120.2c-4 26-6.8 52.3-6.3 78.6-.3 14.7.3 29.4 1.8 44.1a294.4 294.4 0 0 0 35.4 119.7 234.3 234.3 0 0 0 55.3 63.7 165.2 165.2 0 0 0 86.3 36.9c35.8 4.1 71.9-4.6 104.5-19.1 44-19.4 82.5-49.8 115.2-84.8a412.8 412.8 0 0 0 45.2-56.8 576.5 576.5 0 0 0 88.7-287.7c-.1-17 .5-34-1.2-50.9a342.6 342.6 0 0 0-10.2-61.3 222.8 222.8 0 0 0-98.6-137.2 196.3 196.3 0 0 0-112.1-28.3Z"/><path fill="#ffd5d5" stroke="#ffd5d5" stroke-width=".1" d="M1557.3 1176.3c39-1.7 78.8 7.5 112.1 28.3a222.8 222.8 0 0 1 98.6 137.2c5.4 20 8.5 40.6 10.2 61.3 1.7 16.9 1.1 33.9 1.2 50.9a576.5 576.5 0 0 1-88.7 287.7 412.8 412.8 0 0 1-45.2 56.8 357.7 357.7 0 0 1-115.2 84.8c-32.6 14.5-68.7 23.2-104.5 19.1-31.7-3.2-61.7-17-86.3-36.9a234.3 234.3 0 0 1-55.3-63.7 294.4 294.4 0 0 1-35.4-119.7 361.4 361.4 0 0 1-1.8-44.1c-.5-26.3 2.3-52.6 6.3-78.6a712 712 0 0 1 31-120.2 542.2 542.2 0 0 1 54.6-114.2 450.3 450.3 0 0 1 70.4-84.7 258.4 258.4 0 0 1 52.3-37.7c29.4-15.9 62.3-25 95.7-26.3Z"/></svg>